<svg width="32" height="32" viewBox="0 0 32 32" fill="none" xmlns="http://www.w3.org/2000/svg">
  <!-- Chat bubble background -->
  <path d="M16 2C8.268 2 2 7.925 2 15.2c0 3.825 1.575 7.3 4.1 9.875l-2.75 4.125c-.2.3-.1.725.2.925.15.1.35.1.5 0l5.25-2.625c1.425.425 2.95.65 4.5.65 7.732 0 14-5.925 14-13.2S23.732 2 16 2z" fill="#6366f1"/>
  
  <!-- Sparkles icon inside -->
  <g fill="white">
    <!-- Main sparkle -->
    <circle cx="16" cy="12" r="1.5"/>
    <circle cx="12" cy="16" r="1"/>
    <circle cx="20" cy="16" r="1"/>
    <circle cx="16" cy="20" r="1"/>
    
    <!-- Sparkle rays -->
    <rect x="15" y="8" width="2" height="4" rx="1"/>
    <rect x="8" y="15" width="4" height="2" rx="1"/>
    <rect x="20" y="15" width="4" height="2" rx="1"/>
    <rect x="15" y="20" width="2" height="4" rx="1"/>
    
    <!-- Diagonal rays -->
    <rect x="10.5" y="10.5" width="2" height="4" rx="1" transform="rotate(45 11.5 12.5)"/>
    <rect x="19.5" y="17.5" width="2" height="4" rx="1" transform="rotate(45 20.5 19.5)"/>
  </g>
</svg>
